<svg xmlns="http://www.w3.org/2000/svg" viewBox="0 0 193.41 184.46"><defs><style>.cls-1{fill:#ddd;}.cls-2{fill:#ededed;}</style></defs><g id="Layer_2" data-name="Layer 2"><g id="Layer_1-2" data-name="Layer 1"><rect class="cls-1" width="2.87" height="2.87"/><rect class="cls-1" x="9.98" y="0.19" width="2.87" height="2.87"/><rect class="cls-2" x="20.01" y="0.19" width="2.87" height="2.87"/><rect class="cls-2" x="30.04" y="0.19" width="2.87" height="2.87"/><rect class="cls-2" x="40.07" y="0.19" width="2.87" height="2.87"/><rect class="cls-2" x="50.1" y="0.19" width="2.87" height="2.87"/><rect class="cls-2" x="60.13" y="0.19" width="2.87" height="2.87"/><rect class="cls-2" x="70.16" y="0.19" width="2.87" height="2.87"/><rect class="cls-2" x="80.19" y="0.19" width="2.87" height="2.87"/><rect class="cls-2" x="90.23" y="0.19" width="2.87" height="2.87"/><rect class="cls-2" x="100.26" y="0.19" width="2.87" height="2.87"/><rect class="cls-2" x="110.29" y="0.19" width="2.87" height="2.87"/><rect class="cls-2" x="120.32" y="0.19" width="2.87" height="2.87"/><rect class="cls-2" x="130.35" y="0.19" width="2.87" height="2.87"/><rect class="cls-2" x="140.38" y="0.19" width="2.87" height="2.87"/><rect class="cls-2" x="150.41" y="0.19" width="2.87" height="2.87"/><rect class="cls-2" x="160.44" y="0.19" width="2.87" height="2.87"/><rect class="cls-2" x="170.48" y="0.19" width="2.87" height="2.87"/><rect class="cls-2" x="180.51" y="0.19" width="2.87" height="2.87"/><rect class="cls-2" x="190.54" y="0.19" width="2.87" height="2.87"/><rect class="cls-1" y="10.08" width="2.87" height="2.87"/><rect class="cls-1" x="9.98" y="10.27" width="2.87" height="2.87"/><rect class="cls-2" x="20.01" y="10.27" width="2.87" height="2.87"/><rect class="cls-2" x="30.04" y="10.27" width="2.87" height="2.87"/><rect class="cls-2" x="40.07" y="10.27" width="2.87" height="2.87"/><rect class="cls-2" x="50.1" y="10.27" width="2.87" height="2.87"/><rect class="cls-2" x="60.13" y="10.27" width="2.87" height="2.87"/><rect class="cls-2" x="70.16" y="10.27" width="2.87" height="2.87"/><rect class="cls-2" x="80.19" y="10.27" width="2.87" height="2.87"/><rect class="cls-2" x="90.23" y="10.27" width="2.87" height="2.87"/><rect class="cls-2" x="100.26" y="10.27" width="2.87" height="2.87"/><rect class="cls-2" x="110.29" y="10.27" width="2.87" height="2.87"/><rect class="cls-2" x="120.32" y="10.27" width="2.87" height="2.87"/><rect class="cls-2" x="130.35" y="10.27" width="2.87" height="2.87"/><rect class="cls-2" x="140.38" y="10.27" width="2.87" height="2.87"/><rect class="cls-2" x="150.41" y="10.27" width="2.87" height="2.87"/><rect class="cls-2" x="160.44" y="10.27" width="2.87" height="2.87"/><rect class="cls-2" x="170.48" y="10.27" width="2.87" height="2.87"/><rect class="cls-2" x="180.51" y="10.27" width="2.87" height="2.87"/><rect class="cls-2" x="190.54" y="10.27" width="2.87" height="2.87"/><rect class="cls-1" y="20.16" width="2.87" height="2.87"/><rect class="cls-1" x="9.98" y="20.34" width="2.87" height="2.87"/><rect class="cls-2" x="20.01" y="20.34" width="2.87" height="2.87"/><rect class="cls-2" x="30.04" y="20.34" width="2.87" height="2.87"/><rect class="cls-2" x="40.07" y="20.34" width="2.87" height="2.87"/><rect class="cls-2" x="50.1" y="20.34" width="2.87" height="2.87"/><rect class="cls-2" x="60.13" y="20.34" width="2.87" height="2.87"/><rect class="cls-2" x="70.16" y="20.34" width="2.87" height="2.87"/><rect class="cls-2" x="80.19" y="20.34" width="2.87" height="2.87"/><rect class="cls-2" x="90.23" y="20.34" width="2.87" height="2.87"/><rect class="cls-2" x="100.26" y="20.34" width="2.87" height="2.87"/><rect class="cls-2" x="110.29" y="20.34" width="2.87" height="2.87"/><rect class="cls-2" x="120.32" y="20.34" width="2.87" height="2.87"/><rect class="cls-2" x="130.35" y="20.34" width="2.87" height="2.87"/><rect class="cls-2" x="140.38" y="20.34" width="2.87" height="2.87"/><rect class="cls-2" x="150.41" y="20.34" width="2.87" height="2.87"/><rect class="cls-2" x="160.44" y="20.34" width="2.87" height="2.87"/><rect class="cls-2" x="170.48" y="20.34" width="2.87" height="2.87"/><rect class="cls-2" x="180.51" y="20.34" width="2.87" height="2.87"/><rect class="cls-2" x="190.54" y="20.34" width="2.87" height="2.87"/><rect class="cls-1" y="30.23" width="2.87" height="2.87"/><rect class="cls-1" x="9.98" y="30.42" width="2.87" height="2.87"/><rect class="cls-2" x="20.01" y="30.42" width="2.87" height="2.87"/><rect class="cls-2" x="30.04" y="30.42" width="2.87" height="2.87"/><rect class="cls-2" x="40.07" y="30.42" width="2.87" height="2.87"/><rect class="cls-2" x="50.1" y="30.42" width="2.87" height="2.87"/><rect class="cls-2" x="60.13" y="30.42" width="2.87" height="2.87"/><rect class="cls-2" x="70.16" y="30.42" width="2.87" height="2.87"/><rect class="cls-2" x="80.19" y="30.42" width="2.87" height="2.87"/><rect class="cls-2" x="90.23" y="30.42" width="2.87" height="2.87"/><rect class="cls-2" x="100.26" y="30.42" width="2.87" height="2.87"/><rect class="cls-2" x="110.29" y="30.42" width="2.87" height="2.87"/><rect class="cls-2" x="120.32" y="30.42" width="2.87" height="2.87"/><rect class="cls-2" x="130.35" y="30.42" width="2.87" height="2.87"/><rect class="cls-2" x="140.38" y="30.42" width="2.87" height="2.87"/><rect class="cls-2" x="150.41" y="30.42" width="2.87" height="2.87"/><rect class="cls-2" x="160.44" y="30.42" width="2.87" height="2.87"/><rect class="cls-2" x="170.48" y="30.42" width="2.87" height="2.87"/><rect class="cls-2" x="180.51" y="30.42" width="2.87" height="2.87"/><rect class="cls-2" x="190.54" y="30.42" width="2.87" height="2.87"/><rect class="cls-1" y="40.31" width="2.87" height="2.87"/><rect class="cls-1" x="9.98" y="40.5" width="2.87" height="2.87"/><rect class="cls-2" x="20.01" y="40.5" width="2.87" height="2.87"/><rect class="cls-2" x="30.04" y="40.5" width="2.87" height="2.87"/><rect class="cls-2" x="40.07" y="40.5" width="2.87" height="2.87"/><rect class="cls-2" x="50.1" y="40.5" width="2.87" height="2.87"/><rect class="cls-2" x="60.13" y="40.5" width="2.87" height="2.87"/><rect class="cls-2" x="70.16" y="40.5" width="2.87" height="2.87"/><rect class="cls-2" x="80.19" y="40.5" width="2.87" height="2.87"/><rect class="cls-2" x="90.23" y="40.5" width="2.87" height="2.87"/><rect class="cls-2" x="100.26" y="40.5" width="2.87" height="2.87"/><rect class="cls-2" x="110.29" y="40.5" width="2.87" height="2.87"/><rect class="cls-2" x="120.32" y="40.5" width="2.87" height="2.87"/><rect class="cls-2" x="130.35" y="40.5" width="2.87" height="2.87"/><rect class="cls-2" x="140.38" y="40.5" width="2.87" height="2.87"/><rect class="cls-2" x="150.41" y="40.5" width="2.87" height="2.87"/><rect class="cls-2" x="160.44" y="40.5" width="2.87" height="2.87"/><rect class="cls-2" x="170.48" y="40.5" width="2.87" height="2.87"/><rect class="cls-2" x="180.51" y="40.5" width="2.87" height="2.87"/><rect class="cls-2" x="190.54" y="40.5" width="2.87" height="2.87"/><rect class="cls-1" y="50.39" width="2.87" height="2.87"/><rect class="cls-1" x="9.98" y="50.58" width="2.87" height="2.87"/><rect class="cls-2" x="20.01" y="50.58" width="2.87" height="2.87"/><rect class="cls-2" x="30.04" y="50.58" width="2.87" height="2.87"/><rect class="cls-2" x="40.07" y="50.58" width="2.87" height="2.87"/><rect class="cls-2" x="50.1" y="50.58" width="2.87" height="2.87"/><rect class="cls-2" x="60.13" y="50.58" width="2.87" height="2.87"/><rect class="cls-2" x="70.16" y="50.58" width="2.87" height="2.87"/><rect class="cls-2" x="80.19" y="50.58" width="2.87" height="2.87"/><rect class="cls-2" x="90.23" y="50.58" width="2.87" height="2.87"/><rect class="cls-2" x="100.26" y="50.58" width="2.87" height="2.87"/><rect class="cls-2" x="110.29" y="50.58" width="2.87" height="2.87"/><rect class="cls-2" x="120.32" y="50.58" width="2.87" height="2.87"/><rect class="cls-2" x="130.35" y="50.58" width="2.87" height="2.87"/><rect class="cls-2" x="140.38" y="50.58" width="2.87" height="2.87"/><rect class="cls-2" x="150.41" y="50.58" width="2.87" height="2.87"/><rect class="cls-2" x="160.44" y="50.58" width="2.87" height="2.87"/><rect class="cls-2" x="170.48" y="50.58" width="2.87" height="2.87"/><rect class="cls-2" x="180.51" y="50.58" width="2.87" height="2.87"/><rect class="cls-2" x="190.54" y="50.58" width="2.87" height="2.87"/><rect class="cls-1" y="60.47" width="2.87" height="2.87"/><rect class="cls-1" x="9.98" y="60.66" width="2.87" height="2.87"/><rect class="cls-2" x="20.01" y="60.66" width="2.87" height="2.87"/><rect class="cls-2" x="30.04" y="60.66" width="2.87" height="2.87"/><rect class="cls-2" x="40.07" y="60.66" width="2.87" height="2.87"/><rect class="cls-2" x="50.1" y="60.66" width="2.87" height="2.87"/><rect class="cls-2" x="60.13" y="60.66" width="2.87" height="2.87"/><rect class="cls-2" x="70.16" y="60.66" width="2.87" height="2.87"/><rect class="cls-2" x="80.19" y="60.66" width="2.87" height="2.87"/><rect class="cls-2" x="90.23" y="60.66" width="2.87" height="2.87"/><rect class="cls-2" x="100.26" y="60.66" width="2.87" height="2.87"/><rect class="cls-2" x="110.29" y="60.66" width="2.87" height="2.87"/><rect class="cls-2" x="120.32" y="60.66" width="2.87" height="2.87"/><rect class="cls-2" x="130.35" y="60.66" width="2.87" height="2.87"/><rect class="cls-2" x="140.38" y="60.66" width="2.87" height="2.87"/><rect class="cls-2" x="150.41" y="60.66" width="2.87" height="2.87"/><rect class="cls-2" x="160.44" y="60.66" width="2.87" height="2.87"/><rect class="cls-2" x="170.48" y="60.66" width="2.87" height="2.87"/><rect class="cls-2" x="180.51" y="60.66" width="2.87" height="2.87"/><rect class="cls-2" x="190.54" y="60.66" width="2.87" height="2.87"/><rect class="cls-1" y="70.55" width="2.87" height="2.87"/><rect class="cls-1" x="9.98" y="70.73" width="2.87" height="2.87"/><rect class="cls-2" x="20.01" y="70.73" width="2.87" height="2.87"/><rect class="cls-2" x="30.04" y="70.73" width="2.87" height="2.87"/><rect class="cls-2" x="40.07" y="70.73" width="2.87" height="2.87"/><rect class="cls-2" x="50.1" y="70.73" width="2.87" height="2.87"/><rect class="cls-2" x="60.13" y="70.73" width="2.87" height="2.87"/><rect class="cls-2" x="70.16" y="70.73" width="2.87" height="2.87"/><rect class="cls-2" x="80.19" y="70.73" width="2.87" height="2.87"/><rect class="cls-2" x="90.23" y="70.73" width="2.87" height="2.87"/><rect class="cls-2" x="100.26" y="70.73" width="2.87" height="2.87"/><rect class="cls-2" x="110.29" y="70.73" width="2.87" height="2.87"/><rect class="cls-2" x="120.32" y="70.73" width="2.87" height="2.87"/><rect class="cls-2" x="130.35" y="70.73" width="2.87" height="2.87"/><rect class="cls-2" x="140.38" y="70.73" width="2.87" height="2.87"/><rect class="cls-2" x="150.41" y="70.73" width="2.87" height="2.87"/><rect class="cls-2" x="160.44" y="70.73" width="2.87" height="2.87"/><rect class="cls-2" x="170.48" y="70.73" width="2.87" height="2.87"/><rect class="cls-2" x="180.51" y="70.73" width="2.87" height="2.87"/><rect class="cls-2" x="190.54" y="70.73" width="2.87" height="2.87"/><rect class="cls-1" y="80.62" width="2.87" height="2.87"/><rect class="cls-1" x="9.98" y="80.81" width="2.87" height="2.87"/><rect class="cls-2" x="20.01" y="80.81" width="2.87" height="2.87"/><rect class="cls-2" x="30.04" y="80.81" width="2.87" height="2.87"/><rect class="cls-2" x="40.07" y="80.81" width="2.87" height="2.87"/><rect class="cls-2" x="50.1" y="80.81" width="2.87" height="2.87"/><rect class="cls-2" x="60.13" y="80.81" width="2.87" height="2.87"/><rect class="cls-2" x="70.16" y="80.81" width="2.87" height="2.87"/><rect class="cls-2" x="80.19" y="80.81" width="2.87" height="2.87"/><rect class="cls-2" x="90.23" y="80.81" width="2.87" height="2.87"/><rect class="cls-2" x="100.26" y="80.81" width="2.87" height="2.87"/><rect class="cls-2" x="110.29" y="80.81" width="2.87" height="2.87"/><rect class="cls-2" x="120.32" y="80.81" width="2.87" height="2.87"/><rect class="cls-2" x="130.35" y="80.81" width="2.87" height="2.87"/><rect class="cls-2" x="140.38" y="80.81" width="2.87" height="2.87"/><rect class="cls-2" x="150.41" y="80.81" width="2.87" height="2.87"/><rect class="cls-2" x="160.44" y="80.81" width="2.87" height="2.87"/><rect class="cls-2" x="170.48" y="80.81" width="2.87" height="2.87"/><rect class="cls-2" x="180.51" y="80.81" width="2.87" height="2.87"/><rect class="cls-2" x="190.54" y="80.81" width="2.87" height="2.87"/><rect class="cls-1" y="90.7" width="2.87" height="2.87"/><rect class="cls-1" x="9.98" y="90.89" width="2.87" height="2.87"/><rect class="cls-2" x="20.01" y="90.89" width="2.87" height="2.87"/><rect class="cls-2" x="30.04" y="90.89" width="2.87" height="2.87"/><rect class="cls-2" x="40.07" y="90.89" width="2.87" height="2.87"/><rect class="cls-2" x="50.1" y="90.89" width="2.87" height="2.87"/><rect class="cls-2" x="60.13" y="90.89" width="2.87" height="2.87"/><rect class="cls-2" x="70.16" y="90.89" width="2.87" height="2.87"/><rect class="cls-2" x="80.19" y="90.89" width="2.87" height="2.87"/><rect class="cls-2" x="90.23" y="90.89" width="2.87" height="2.87"/><rect class="cls-2" x="100.26" y="90.89" width="2.87" height="2.87"/><rect class="cls-2" x="110.29" y="90.89" width="2.87" height="2.87"/><rect class="cls-2" x="120.32" y="90.89" width="2.87" height="2.87"/><rect class="cls-2" x="130.35" y="90.89" width="2.87" height="2.87"/><rect class="cls-2" x="140.38" y="90.89" width="2.87" height="2.87"/><rect class="cls-2" x="150.41" y="90.89" width="2.87" height="2.87"/><rect class="cls-2" x="160.44" y="90.89" width="2.87" height="2.87"/><rect class="cls-2" x="170.48" y="90.89" width="2.87" height="2.87"/><rect class="cls-2" x="180.51" y="90.89" width="2.87" height="2.87"/><rect class="cls-2" x="190.54" y="90.89" width="2.87" height="2.87"/><rect class="cls-1" y="100.78" width="2.87" height="2.87"/><rect class="cls-1" x="9.98" y="100.97" width="2.87" height="2.87"/><rect class="cls-2" x="20.01" y="100.97" width="2.87" height="2.87"/><rect class="cls-2" x="30.04" y="100.97" width="2.87" height="2.87"/><rect class="cls-2" x="40.07" y="100.97" width="2.87" height="2.87"/><rect class="cls-2" x="50.1" y="100.97" width="2.87" height="2.87"/><rect class="cls-2" x="60.13" y="100.97" width="2.87" height="2.87"/><rect class="cls-2" x="70.16" y="100.97" width="2.87" height="2.87"/><rect class="cls-2" x="80.19" y="100.97" width="2.87" height="2.87"/><rect class="cls-2" x="90.23" y="100.97" width="2.87" height="2.87"/><rect class="cls-2" x="100.26" y="100.97" width="2.87" height="2.87"/><rect class="cls-2" x="110.29" y="100.97" width="2.87" height="2.87"/><rect class="cls-2" x="120.32" y="100.97" width="2.87" height="2.87"/><rect class="cls-2" x="130.35" y="100.97" width="2.87" height="2.87"/><rect class="cls-2" x="140.38" y="100.97" width="2.87" height="2.87"/><rect class="cls-2" x="150.41" y="100.97" width="2.87" height="2.87"/><rect class="cls-2" x="160.44" y="100.97" width="2.87" height="2.87"/><rect class="cls-2" x="170.48" y="100.97" width="2.87" height="2.87"/><rect class="cls-2" x="180.51" y="100.97" width="2.87" height="2.87"/><rect class="cls-2" x="190.54" y="100.97" width="2.87" height="2.87"/><rect class="cls-1" y="110.86" width="2.87" height="2.87"/><rect class="cls-1" x="9.98" y="111.05" width="2.87" height="2.87"/><rect class="cls-2" x="20.01" y="111.05" width="2.87" height="2.87"/><rect class="cls-2" x="30.04" y="111.05" width="2.87" height="2.87"/><rect class="cls-2" x="40.07" y="111.05" width="2.87" height="2.87"/><rect class="cls-2" x="50.1" y="111.05" width="2.87" height="2.87"/><rect class="cls-2" x="60.13" y="111.05" width="2.87" height="2.87"/><rect class="cls-2" x="70.16" y="111.05" width="2.87" height="2.87"/><rect class="cls-2" x="80.19" y="111.05" width="2.87" height="2.87"/><rect class="cls-2" x="90.23" y="111.05" width="2.87" height="2.87"/><rect class="cls-2" x="100.26" y="111.05" width="2.87" height="2.87"/><rect class="cls-2" x="110.29" y="111.05" width="2.87" height="2.87"/><rect class="cls-2" x="120.32" y="111.05" width="2.87" height="2.87"/><rect class="cls-2" x="130.35" y="111.05" width="2.87" height="2.87"/><rect class="cls-2" x="140.38" y="111.05" width="2.87" height="2.87"/><rect class="cls-2" x="150.41" y="111.05" width="2.87" height="2.87"/><rect class="cls-2" x="160.44" y="111.05" width="2.87" height="2.87"/><rect class="cls-2" x="170.48" y="111.05" width="2.87" height="2.87"/><rect class="cls-2" x="180.51" y="111.05" width="2.87" height="2.87"/><rect class="cls-2" x="190.54" y="111.05" width="2.87" height="2.87"/><rect class="cls-1" y="120.94" width="2.87" height="2.87"/><rect class="cls-1" x="9.98" y="121.12" width="2.87" height="2.87"/><rect class="cls-2" x="20.01" y="121.12" width="2.87" height="2.87"/><rect class="cls-2" x="30.04" y="121.12" width="2.87" height="2.87"/><rect class="cls-2" x="40.07" y="121.12" width="2.87" height="2.87"/><rect class="cls-2" x="50.1" y="121.12" width="2.87" height="2.87"/><rect class="cls-2" x="60.13" y="121.12" width="2.87" height="2.87"/><rect class="cls-2" x="70.16" y="121.12" width="2.87" height="2.87"/><rect class="cls-2" x="80.19" y="121.12" width="2.87" height="2.87"/><rect class="cls-2" x="90.23" y="121.12" width="2.87" height="2.87"/><rect class="cls-2" x="100.26" y="121.12" width="2.87" height="2.87"/><rect class="cls-2" x="110.29" y="121.12" width="2.87" height="2.87"/><rect class="cls-2" x="120.32" y="121.12" width="2.87" height="2.87"/><rect class="cls-2" x="130.35" y="121.12" width="2.87" height="2.87"/><rect class="cls-2" x="140.38" y="121.12" width="2.87" height="2.87"/><rect class="cls-2" x="150.41" y="121.12" width="2.87" height="2.87"/><rect class="cls-2" x="160.44" y="121.12" width="2.87" height="2.87"/><rect class="cls-2" x="170.48" y="121.12" width="2.87" height="2.87"/><rect class="cls-2" x="180.51" y="121.12" width="2.87" height="2.87"/><rect class="cls-2" x="190.54" y="121.12" width="2.87" height="2.87"/><rect class="cls-1" y="131.02" width="2.87" height="2.87"/><rect class="cls-1" x="9.98" y="131.2" width="2.87" height="2.87"/><rect class="cls-2" x="20.01" y="131.2" width="2.87" height="2.87"/><rect class="cls-2" x="30.04" y="131.2" width="2.87" height="2.87"/><rect class="cls-2" x="40.07" y="131.2" width="2.87" height="2.87"/><rect class="cls-2" x="50.1" y="131.2" width="2.87" height="2.87"/><rect class="cls-2" x="60.13" y="131.2" width="2.87" height="2.87"/><rect class="cls-2" x="70.16" y="131.2" width="2.87" height="2.87"/><rect class="cls-2" x="80.19" y="131.2" width="2.87" height="2.87"/><rect class="cls-2" x="90.23" y="131.2" width="2.87" height="2.87"/><rect class="cls-2" x="100.26" y="131.2" width="2.87" height="2.87"/><rect class="cls-2" x="110.29" y="131.2" width="2.87" height="2.87"/><rect class="cls-2" x="120.32" y="131.2" width="2.87" height="2.87"/><rect class="cls-2" x="130.35" y="131.2" width="2.87" height="2.87"/><rect class="cls-2" x="140.38" y="131.2" width="2.87" height="2.87"/><rect class="cls-2" x="150.41" y="131.2" width="2.87" height="2.87"/><rect class="cls-2" x="160.44" y="131.2" width="2.87" height="2.87"/><rect class="cls-2" x="170.48" y="131.2" width="2.87" height="2.87"/><rect class="cls-2" x="180.51" y="131.2" width="2.87" height="2.87"/><rect class="cls-2" x="190.54" y="131.2" width="2.87" height="2.87"/><rect class="cls-1" y="141.09" width="2.87" height="2.87"/><rect class="cls-1" x="9.98" y="141.28" width="2.87" height="2.87"/><rect class="cls-2" x="20.01" y="141.28" width="2.87" height="2.87"/><rect class="cls-2" x="30.04" y="141.28" width="2.87" height="2.87"/><rect class="cls-2" x="40.07" y="141.28" width="2.87" height="2.87"/><rect class="cls-2" x="50.1" y="141.28" width="2.87" height="2.87"/><rect class="cls-2" x="60.13" y="141.28" width="2.87" height="2.87"/><rect class="cls-2" x="70.16" y="141.28" width="2.87" height="2.87"/><rect class="cls-2" x="80.19" y="141.28" width="2.87" height="2.87"/><rect class="cls-2" x="90.23" y="141.28" width="2.87" height="2.87"/><rect class="cls-2" x="100.26" y="141.28" width="2.87" height="2.87"/><rect class="cls-2" x="110.29" y="141.28" width="2.87" height="2.87"/><rect class="cls-2" x="120.32" y="141.28" width="2.87" height="2.87"/><rect class="cls-2" x="130.35" y="141.28" width="2.87" height="2.87"/><rect class="cls-2" x="140.38" y="141.28" width="2.87" height="2.87"/><rect class="cls-2" x="150.41" y="141.28" width="2.87" height="2.87"/><rect class="cls-2" x="160.44" y="141.28" width="2.87" height="2.87"/><rect class="cls-2" x="170.48" y="141.28" width="2.87" height="2.87"/><rect class="cls-2" x="180.51" y="141.28" width="2.87" height="2.87"/><rect class="cls-2" x="190.54" y="141.28" width="2.87" height="2.87"/><rect class="cls-1" y="151.17" width="2.87" height="2.87"/><rect class="cls-1" x="9.98" y="151.36" width="2.87" height="2.87"/><rect class="cls-2" x="20.01" y="151.36" width="2.87" height="2.87"/><rect class="cls-2" x="30.04" y="151.36" width="2.87" height="2.87"/><rect class="cls-2" x="40.07" y="151.36" width="2.87" height="2.87"/><rect class="cls-2" x="50.1" y="151.36" width="2.87" height="2.87"/><rect class="cls-2" x="60.13" y="151.36" width="2.87" height="2.87"/><rect class="cls-2" x="70.16" y="151.36" width="2.87" height="2.87"/><rect class="cls-2" x="80.19" y="151.36" width="2.87" height="2.87"/><rect class="cls-2" x="90.23" y="151.36" width="2.87" height="2.87"/><rect class="cls-2" x="100.26" y="151.36" width="2.87" height="2.87"/><rect class="cls-2" x="110.29" y="151.36" width="2.87" height="2.87"/><rect class="cls-2" x="120.32" y="151.36" width="2.87" height="2.87"/><rect class="cls-2" x="130.35" y="151.36" width="2.87" height="2.87"/><rect class="cls-2" x="140.38" y="151.36" width="2.87" height="2.87"/><rect class="cls-2" x="150.41" y="151.36" width="2.87" height="2.87"/><rect class="cls-2" x="160.44" y="151.36" width="2.87" height="2.87"/><rect class="cls-2" x="170.48" y="151.36" width="2.87" height="2.87"/><rect class="cls-2" x="180.51" y="151.36" width="2.87" height="2.87"/><rect class="cls-2" x="190.54" y="151.36" width="2.87" height="2.87"/><rect class="cls-1" y="161.25" width="2.87" height="2.87"/><rect class="cls-1" x="9.98" y="161.44" width="2.87" height="2.87"/><rect class="cls-2" x="20.01" y="161.44" width="2.87" height="2.87"/><rect class="cls-2" x="30.04" y="161.44" width="2.87" height="2.87"/><rect class="cls-2" x="40.07" y="161.44" width="2.87" height="2.87"/><rect class="cls-2" x="50.1" y="161.44" width="2.87" height="2.87"/><rect class="cls-2" x="60.13" y="161.44" width="2.87" height="2.87"/><rect class="cls-2" x="70.16" y="161.44" width="2.87" height="2.87"/><rect class="cls-2" x="80.19" y="161.44" width="2.87" height="2.87"/><rect class="cls-2" x="90.23" y="161.44" width="2.87" height="2.87"/><rect class="cls-2" x="100.26" y="161.44" width="2.87" height="2.87"/><rect class="cls-2" x="110.29" y="161.44" width="2.87" height="2.87"/><rect class="cls-2" x="120.32" y="161.44" width="2.87" height="2.87"/><rect class="cls-2" x="130.35" y="161.44" width="2.87" height="2.87"/><rect class="cls-2" x="140.38" y="161.44" width="2.87" height="2.87"/><rect class="cls-2" x="150.41" y="161.44" width="2.87" height="2.87"/><rect class="cls-2" x="160.44" y="161.44" width="2.87" height="2.87"/><rect class="cls-2" x="170.48" y="161.44" width="2.87" height="2.87"/><rect class="cls-2" x="180.51" y="161.44" width="2.87" height="2.87"/><rect class="cls-2" x="190.54" y="161.44" width="2.87" height="2.87"/><rect class="cls-1" y="171.33" width="2.87" height="2.87"/><rect class="cls-1" x="9.98" y="171.52" width="2.87" height="2.87"/><rect class="cls-2" x="20.01" y="171.52" width="2.87" height="2.87"/><rect class="cls-2" x="30.04" y="171.52" width="2.87" height="2.87"/><rect class="cls-2" x="40.07" y="171.52" width="2.87" height="2.87"/><rect class="cls-2" x="50.1" y="171.52" width="2.87" height="2.87"/><rect class="cls-2" x="60.13" y="171.52" width="2.87" height="2.87"/><rect class="cls-2" x="70.16" y="171.52" width="2.87" height="2.87"/><rect class="cls-2" x="80.19" y="171.52" width="2.87" height="2.87"/><rect class="cls-2" x="90.23" y="171.52" width="2.87" height="2.87"/><rect class="cls-2" x="100.26" y="171.52" width="2.87" height="2.87"/><rect class="cls-2" x="110.29" y="171.52" width="2.87" height="2.87"/><rect class="cls-2" x="120.32" y="171.52" width="2.87" height="2.87"/><rect class="cls-2" x="130.35" y="171.52" width="2.87" height="2.87"/><rect class="cls-2" x="140.38" y="171.52" width="2.87" height="2.87"/><rect class="cls-2" x="150.41" y="171.52" width="2.87" height="2.87"/><rect class="cls-2" x="160.44" y="171.52" width="2.87" height="2.87"/><rect class="cls-2" x="170.48" y="171.52" width="2.87" height="2.87"/><rect class="cls-2" x="180.51" y="171.52" width="2.87" height="2.87"/><rect class="cls-2" x="190.54" y="171.52" width="2.87" height="2.87"/><rect class="cls-1" y="181.41" width="2.87" height="2.87"/><rect class="cls-1" x="9.98" y="181.59" width="2.87" height="2.87"/><rect class="cls-2" x="20.01" y="181.59" width="2.87" height="2.87"/><rect class="cls-2" x="30.04" y="181.59" width="2.87" height="2.87"/><rect class="cls-2" x="40.07" y="181.59" width="2.87" height="2.87"/><rect class="cls-2" x="50.1" y="181.59" width="2.87" height="2.87"/><rect class="cls-2" x="60.13" y="181.59" width="2.87" height="2.87"/><rect class="cls-2" x="70.16" y="181.59" width="2.87" height="2.87"/><rect class="cls-2" x="80.19" y="181.59" width="2.87" height="2.87"/><rect class="cls-2" x="90.23" y="181.59" width="2.87" height="2.87"/><rect class="cls-2" x="100.26" y="181.59" width="2.87" height="2.87"/><rect class="cls-2" x="110.29" y="181.59" width="2.87" height="2.87"/><rect class="cls-2" x="120.32" y="181.59" width="2.87" height="2.87"/><rect class="cls-2" x="130.35" y="181.59" width="2.87" height="2.87"/><rect class="cls-2" x="140.38" y="181.59" width="2.87" height="2.87"/><rect class="cls-2" x="150.41" y="181.59" width="2.87" height="2.87"/><rect class="cls-2" x="160.44" y="181.59" width="2.87" height="2.87"/><rect class="cls-2" x="170.48" y="181.59" width="2.87" height="2.87"/><rect class="cls-2" x="180.51" y="181.59" width="2.87" height="2.87"/><rect class="cls-2" x="190.54" y="181.59" width="2.87" height="2.87"/></g></g></svg>